<?xml version="1.0" standalone="no"?>
<!DOCTYPE svg PUBLIC "-//W3C//DTD SVG 20010904//EN"
 "http://www.w3.org/TR/2001/REC-SVG-20010904/DTD/svg10.dtd">
<svg version="1.0" xmlns="http://www.w3.org/2000/svg"
 width="694.000000pt" height="537.000000pt" viewBox="0 0 694.000000 537.000000"
 preserveAspectRatio="xMidYMid meet">

<g transform="translate(0.000000,537.000000) scale(0.100000,-0.100000)"
fill="#000000" stroke="none">
<path d="M4396 5357 c-15 -11 -17 -22 -12 -53 21 -127 20 -151 -11 -216 -42
-89 -96 -154 -321 -391 -175 -184 -198 -205 -204 -185 -13 46 -8 341 7 413 15
68 59 169 111 253 l26 42 -73 -6 c-180 -15 -285 -50 -366 -119 -53 -46 -103
-143 -103 -202 0 -70 36 -122 74 -107 25 9 26 32 6 80 -25 58 -25 77 1 131 24
50 75 93 150 128 56 26 157 51 166 41 3 -3 -8 -27 -25 -53 -91 -141 -99 -202
-76 -535 l18 -260 100 108 c56 60 172 183 259 273 260 270 347 394 363 517 13
109 -34 182 -90 141z"/>
<path d="M6215 5329 c-119 -18 -186 -50 -266 -126 -81 -77 -129 -177 -136
-281 -8 -108 2 -124 70 -120 l52 3 6 40 c18 101 64 161 157 207 59 29 76 33
147 33 100 0 170 -31 239 -105 116 -124 142 -306 74 -513 -111 -339 -434 -602
-793 -647 -154 -19 -248 1 -510 110 -250 103 -322 121 -506 121 -231 0 -413
-62 -518 -177 -61 -66 -81 -123 -88 -240 -10 -163 26 -332 157 -742 78 -246
107 -372 95 -416 -21 -73 -56 -96 -146 -96 -122 0 -271 58 -475 185 -315 198
-532 372 -581 470 -12 22 -32 96 -46 165 -29 149 -55 209 -119 273 -89 89
-181 112 -425 104 -433 -14 -743 -170 -887 -447 -58 -111 -78 -190 -83 -335
-3 -71 -2 -127 1 -123 4 3 14 32 22 65 22 83 95 233 148 301 140 182 379 320
611 353 109 15 272 -2 341 -36 64 -31 129 -100 143 -151 18 -63 13 -156 -14
-258 -32 -124 -32 -159 4 -221 34 -59 150 -172 276 -269 50 -38 127 -100 172
-138 118 -98 117 -95 62 -353 -24 -115 -22 -220 7 -282 27 -57 120 -141 224
-203 257 -152 387 -361 431 -687 22 -165 -6 -626 -41 -683 -8 -13 -234 -44
-405 -56 l-101 -7 7 96 c17 229 91 493 206 730 l67 139 -34 66 c-40 79 -142
185 -215 224 -28 15 -91 39 -140 53 -128 38 -256 42 -464 16 -157 -20 -265
-28 -666 -51 -205 -11 -263 -24 -390 -84 -161 -76 -302 -214 -380 -371 l-35
-72 54 -114 c89 -187 160 -399 180 -540 l7 -47 -158 0 c-87 -1 -201 -6 -253
-11 -52 -6 -108 -11 -124 -11 l-29 0 6 93 c3 50 17 152 32 226 82 415 253 771
504 1046 39 43 71 82 71 87 0 11 -16 11 -205 8 -194 -3 -234 6 -291 64 -33 33
-44 53 -54 100 -20 96 2 201 94 451 21 58 26 87 26 175 0 97 -2 110 -31 170
l-31 65 -19 -52 c-28 -83 -79 -172 -131 -228 -55 -60 -125 -100 -275 -156
-208 -78 -296 -138 -377 -256 -92 -135 -131 -319 -108 -518 7 -66 19 -119 32
-145 22 -43 71 -80 105 -80 29 0 82 35 90 60 10 30 1 34 -29 15 -35 -23 -74
-13 -82 21 -4 15 -4 85 -1 158 11 257 83 423 212 482 114 54 228 10 260 -100
35 -118 36 -112 -225 -1042 l-175 -621 -140 -7 c-155 -7 -238 -22 -335 -59
l-65 -26 2590 0 c2263 -1 2915 3 2902 15 -2 2 -30 10 -63 18 -78 20 -311 43
-593 58 -218 11 -230 13 -235 33 -26 104 -29 242 -27 1145 1 520 6 983 11
1030 17 149 112 304 224 363 32 17 59 22 121 22 88 0 132 -17 210 -79 65 -53
67 -53 59 -9 -4 21 -17 71 -29 111 -13 39 -21 72 -19 72 3 0 48 -22 102 -49
236 -118 496 -170 792 -158 130 6 244 18 293 33 32 10 6 24 -45 24 -62 0 -230
24 -358 52 -287 61 -534 186 -716 360 -128 123 -126 131 10 60 l116 -61 83 53
c110 71 214 129 497 276 257 134 356 195 500 311 258 208 425 445 487 695 26
106 23 363 -6 468 -45 167 -141 308 -268 392 -115 76 -289 114 -428 93z
m-3155 -4174 c44 -40 55 -98 54 -290 0 -231 -26 -380 -115 -671 l-32 -104
-146 6 c-118 5 -175 2 -296 -14 -82 -12 -178 -24 -211 -28 l-62 -6 -42 108
c-101 262 -160 511 -160 673 0 118 19 189 64 238 41 45 78 51 297 52 182 1
324 14 447 41 101 22 174 21 202 -5z"/>
<path d="M3259 5173 c-127 -122 -267 -308 -399 -531 -24 -39 -44 -71 -46 -69
-5 5 -44 515 -44 579 0 58 -2 66 -17 62 -10 -2 -70 -8 -133 -13 -234 -19 -370
-110 -399 -265 -17 -91 24 -180 79 -174 37 4 37 33 -1 103 -32 60 -33 64 -20
106 29 99 182 189 321 189 27 0 28 -1 23 -42 -35 -310 -116 -558 -218 -667
-62 -66 -89 -77 -165 -62 -73 15 -100 4 -100 -39 0 -38 28 -53 92 -51 170 3
308 186 387 510 17 69 34 153 37 188 4 35 10 60 14 56 4 -4 17 -152 29 -328
13 -176 26 -338 29 -360 l7 -39 79 139 c90 161 220 362 307 476 58 77 80 99
59 59 -6 -11 -42 -140 -80 -287 -38 -147 -77 -293 -88 -323 l-19 -55 149 0
c128 0 151 2 159 16 8 15 -1 17 -75 20 -47 2 -88 7 -91 11 -9 9 140 609 189
762 19 58 30 106 25 106 -5 0 -46 -35 -90 -77z"/>
<path d="M4841 5205 c-89 -25 -152 -65 -237 -150 -66 -67 -90 -99 -128 -176
-64 -130 -79 -198 -74 -328 3 -87 8 -116 29 -161 36 -77 80 -124 147 -156 108
-51 232 -33 342 50 46 35 100 104 100 127 0 32 -26 21 -65 -27 -113 -137 -244
-158 -346 -55 -61 60 -79 120 -79 255 0 124 19 204 76 322 78 165 202 266 325
268 106 1 152 -57 152 -190 0 -73 2 -84 17 -84 14 0 19 13 24 63 4 34 14 91
23 125 8 35 11 67 7 72 -5 4 -38 17 -74 29 -87 29 -172 35 -239 16z"/>
<path d="M1576 4918 c-40 -40 -86 -91 -104 -113 l-31 -40 21 82 c31 126 17
137 -98 78 -89 -45 -164 -109 -147 -126 9 -9 23 -2 60 30 27 22 57 41 67 41
16 0 17 -6 11 -47 -4 -27 -31 -144 -61 -262 -30 -118 -54 -216 -54 -218 0 -2
23 -3 52 -1 l52 3 41 160 c24 95 51 178 67 205 46 78 107 133 183 165 86 35
95 42 95 69 0 30 -18 46 -53 46 -22 0 -45 -16 -101 -72z"/>
<path d="M408 4946 c-65 -18 -120 -56 -169 -118 -103 -130 -154 -318 -116
-427 30 -86 121 -97 252 -32 101 50 149 89 140 114 -7 16 -10 16 -39 -6 -47
-36 -110 -66 -154 -73 -36 -6 -44 -3 -65 20 -42 46 -48 129 -18 249 48 184
115 241 222 186 70 -35 130 -14 116 42 -12 48 -88 68 -169 45z"/>
<path d="M919 4950 c-170 -29 -306 -233 -298 -443 3 -66 8 -88 27 -115 51 -71
156 -87 255 -38 71 34 161 131 200 213 34 73 47 191 28 259 -26 97 -104 143
-212 124z m48 -72 c32 -36 42 -61 49 -130 17 -166 -59 -346 -153 -364 -83 -16
-122 46 -123 197 0 109 16 175 58 238 53 79 127 104 169 59z"/>
<path d="M1929 4944 c-185 -57 -350 -456 -242 -585 37 -43 106 -41 199 5 88
45 184 129 167 147 -10 10 -23 5 -65 -23 -113 -75 -173 -88 -202 -46 -16 23
-22 114 -8 134 4 6 57 36 117 67 147 75 215 144 215 217 0 37 -28 77 -61 89
-40 14 -63 13 -120 -5z m49 -60 c16 -11 22 -25 22 -55 0 -32 -7 -47 -40 -83
-39 -42 -156 -114 -167 -102 -8 7 14 91 39 148 22 52 78 108 106 108 10 0 28
-7 40 -16z"/>
<path d="M5622 3043 c-40 -30 -72 -60 -72 -65 0 -14 118 -65 202 -88 163 -44
350 -58 533 -41 82 8 78 11 -81 50 -130 32 -259 80 -394 145 -47 23 -92 45
-101 48 -10 4 -42 -14 -87 -49z"/>
</g>
</svg>
